<svg xmlns="http://www.w3.org/2000/svg" viewBox="0 0 400 400" width="400" height="400">
  <defs>
    <radialGradient id="bgGrad" cx="50%" cy="50%" r="50%">
      <stop offset="0%" style="stop-color:#0D1F3C"/>
      <stop offset="100%" style="stop-color:#0A1628"/>
    </radialGradient>
    <radialGradient id="glowGrad" cx="50%" cy="50%" r="50%">
      <stop offset="0%" style="stop-color:#6495ED;stop-opacity:0.2"/>
      <stop offset="100%" style="stop-color:#6495ED;stop-opacity:0"/>
    </radialGradient>
    <linearGradient id="noteGrad" x1="0%" y1="0%" x2="100%" y2="100%">
      <stop offset="0%" style="stop-color:#1a6b3a"/>
      <stop offset="50%" style="stop-color:#22883f"/>
      <stop offset="100%" style="stop-color:#156030"/>
    </linearGradient>
    <linearGradient id="noteSheen" x1="0%" y1="0%" x2="0%" y2="100%">
      <stop offset="0%" style="stop-color:#ffffff;stop-opacity:0.18"/>
      <stop offset="100%" style="stop-color:#ffffff;stop-opacity:0"/>
    </linearGradient>
    <linearGradient id="metalDark" x1="0%" y1="0%" x2="100%" y2="100%">
      <stop offset="0%" style="stop-color:#2A3F6B"/>
      <stop offset="100%" style="stop-color:#162B4D"/>
    </linearGradient>
    <linearGradient id="metalMid" x1="0%" y1="0%" x2="100%" y2="100%">
      <stop offset="0%" style="stop-color:#3A5490"/>
      <stop offset="100%" style="stop-color:#2A3F6B"/>
    </linearGradient>
    <linearGradient id="metalLight" x1="0%" y1="0%" x2="100%" y2="0%">
      <stop offset="0%" style="stop-color:#6495ED;stop-opacity:0.6"/>
      <stop offset="100%" style="stop-color:#85B3F5;stop-opacity:0.3"/>
    </linearGradient>
    <filter id="glow">
      <feGaussianBlur stdDeviation="2.5" result="coloredBlur"/>
      <feMerge><feMergeNode in="coloredBlur"/><feMergeNode in="SourceGraphic"/></feMerge>
    </filter>
  </defs>

  <!-- Background -->
  <circle cx="200" cy="200" r="200" fill="url(#bgGrad)"/>

  <!-- Ambient glow — pulses -->
  <ellipse cx="200" cy="220" rx="130" ry="100" fill="url(#glowGrad)">
    <animate attributeName="rx" values="130;150;130" dur="2s" repeatCount="indefinite"/>
    <animate attributeName="opacity" values="1;0.6;1" dur="2s" repeatCount="indefinite"/>
  </ellipse>

  <!-- Neural dots (background) -->
  <g opacity="0.2" fill="#6495ED">
    <circle cx="50" cy="60" r="3"><animate attributeName="opacity" values="0.2;0.6;0.2" dur="3s" begin="0s" repeatCount="indefinite"/></circle>
    <circle cx="290" cy="55" r="3"><animate attributeName="opacity" values="0.2;0.6;0.2" dur="3s" begin="0.5s" repeatCount="indefinite"/></circle>
    <circle cx="350" cy="90" r="2"><animate attributeName="opacity" values="0.2;0.6;0.2" dur="3s" begin="1s" repeatCount="indefinite"/></circle>
    <circle cx="40" cy="160" r="2"><animate attributeName="opacity" values="0.2;0.6;0.2" dur="3s" begin="1.5s" repeatCount="indefinite"/></circle>
    <circle cx="360" cy="150" r="3"><animate attributeName="opacity" values="0.2;0.6;0.2" dur="3s" begin="2s" repeatCount="indefinite"/></circle>
    <circle cx="55" cy="310" r="2"><animate attributeName="opacity" values="0.2;0.6;0.2" dur="3s" begin="2.5s" repeatCount="indefinite"/></circle>
  </g>

  <!-- ═══ ANIMATED BANKNOTE — waves/flutters ═══ -->
  <!-- The note rotates and bobs up and down to simulate waving -->
  <g id="banknote">
    <animateTransform attributeName="transform" type="translate" values="200,148; 200,142; 204,148; 196,144; 200,148" dur="1.8s" repeatCount="indefinite"/>
  </g>
  <g transform="translate(200,148)">
    <g>
      <!-- Waving animation: rotate around bottom-center of note -->
      <animateTransform attributeName="transform" type="rotate" values="-22;-30;-16;-26;-22" dur="1.8s" repeatCount="indefinite" additive="sum"/>
      <!-- Note shadow -->
      <rect x="-78" y="-38" width="156" height="76" rx="6" fill="#000" opacity="0.3" transform="translate(4,5)"/>
      <!-- Note body -->
      <rect x="-78" y="-38" width="156" height="76" rx="6" fill="url(#noteGrad)"/>
      <rect x="-78" y="-38" width="156" height="76" rx="6" fill="url(#noteSheen)"/>
      <rect x="-72" y="-32" width="144" height="64" rx="4" fill="none" stroke="#ffffff" stroke-width="1.2" opacity="0.35"/>
      <ellipse cx="0" cy="0" rx="22" ry="16" fill="none" stroke="#ffffff" stroke-width="1" opacity="0.5"/>
      <text x="0" y="5" font-family="Georgia,serif" font-size="14" font-weight="bold" fill="white" text-anchor="middle" opacity="0.8">K</text>
      <line x1="-65" y1="-10" x2="-30" y2="-10" stroke="white" stroke-width="0.8" opacity="0.3"/>
      <line x1="-65" y1="-2" x2="-30" y2="-2" stroke="white" stroke-width="0.8" opacity="0.3"/>
      <line x1="-65" y1="6" x2="-30" y2="6" stroke="white" stroke-width="0.8" opacity="0.3"/>
      <line x1="30" y1="-10" x2="65" y2="-10" stroke="white" stroke-width="0.8" opacity="0.3"/>
      <line x1="30" y1="-2" x2="65" y2="-2" stroke="white" stroke-width="0.8" opacity="0.3"/>
      <line x1="30" y1="6" x2="65" y2="6" stroke="white" stroke-width="0.8" opacity="0.3"/>
      <text x="-68" y="-22" font-family="monospace" font-size="9" fill="white" opacity="0.7">K50</text>
      <text x="42" y="28" font-family="monospace" font-size="9" fill="white" opacity="0.7">K50</text>
      <rect x="10" y="-38" width="6" height="76" fill="#6495ED" opacity="0.25"/>
      <!-- Shimmer effect on note -->
      <rect x="-78" y="-38" width="30" height="76" rx="6" fill="white" opacity="0">
        <animate attributeName="x" values="-78;78;-78" dur="2.4s" repeatCount="indefinite"/>
        <animate attributeName="opacity" values="0;0.08;0" dur="2.4s" repeatCount="indefinite"/>
      </rect>
    </g>
  </g>

  <!-- ═══ ROBOTIC HAND (static) ═══ -->
  <!-- Wrist -->
  <rect x="152" y="290" width="96" height="40" rx="10" fill="url(#metalDark)" stroke="#6495ED" stroke-width="1" stroke-opacity="0.4"/>
  <line x1="165" y1="290" x2="165" y2="330" stroke="#6495ED" stroke-width="0.8" stroke-opacity="0.4"/>
  <line x1="235" y1="290" x2="235" y2="330" stroke="#6495ED" stroke-width="0.8" stroke-opacity="0.4"/>
  <!-- Pulsing wrist dots -->
  <circle cx="185" cy="310" r="2.5" fill="#6495ED" opacity="0.5"><animate attributeName="opacity" values="0.5;1;0.5" dur="1.2s" begin="0s" repeatCount="indefinite"/></circle>
  <circle cx="200" cy="310" r="2.5" fill="#6495ED" opacity="0.9" filter="url(#glow)"><animate attributeName="opacity" values="0.9;0.4;0.9" dur="1.2s" begin="0.4s" repeatCount="indefinite"/></circle>
  <circle cx="215" cy="310" r="2.5" fill="#6495ED" opacity="0.5"><animate attributeName="opacity" values="0.5;1;0.5" dur="1.2s" begin="0.8s" repeatCount="indefinite"/></circle>

  <!-- Palm -->
  <rect x="148" y="230" width="104" height="68" rx="12" fill="url(#metalMid)" stroke="#6495ED" stroke-width="1" stroke-opacity="0.3"/>
  <rect x="158" y="240" width="84" height="48" rx="6" fill="none" stroke="#6495ED" stroke-width="0.6" stroke-opacity="0.3"/>
  <line x1="170" y1="252" x2="230" y2="252" stroke="#6495ED" stroke-width="0.7" stroke-opacity="0.4"/>
  <line x1="170" y1="264" x2="230" y2="264" stroke="#6495ED" stroke-width="0.7" stroke-opacity="0.4"/>
  <line x1="200" y1="252" x2="200" y2="278" stroke="#6495ED" stroke-width="0.7" stroke-opacity="0.4"/>
  <!-- Pulsing palm core -->
  <circle cx="200" cy="264" r="12" fill="#6495ED" opacity="0.1"><animate attributeName="r" values="8;14;8" dur="1.8s" repeatCount="indefinite"/><animate attributeName="opacity" values="0.1;0.2;0.1" dur="1.8s" repeatCount="indefinite"/></circle>
  <circle cx="200" cy="264" r="4" fill="#6495ED" opacity="0.6" filter="url(#glow)"><animate attributeName="opacity" values="0.6;1;0.6" dur="1.8s" repeatCount="indefinite"/></circle>
  <circle cx="200" cy="264" r="2" fill="white" opacity="0.9"/>

  <!-- Fingers -->
  <g transform="translate(164,230) rotate(-12)">
    <rect x="-10" y="-72" width="20" height="24" rx="5" fill="url(#metalMid)" stroke="#6495ED" stroke-width="0.8" stroke-opacity="0.5"/>
    <rect x="-5" y="-70" width="10" height="20" rx="3" fill="url(#metalLight)"/>
    <rect x="-11" y="-50" width="22" height="6" rx="3" fill="url(#metalDark)" stroke="#6495ED" stroke-width="0.8" stroke-opacity="0.6"/>
    <rect x="-10" y="-45" width="20" height="24" rx="4" fill="url(#metalMid)" stroke="#6495ED" stroke-width="0.8" stroke-opacity="0.4"/>
    <rect x="-5" y="-43" width="10" height="20" rx="3" fill="url(#metalLight)"/>
    <rect x="-11" y="-23" width="22" height="6" rx="3" fill="url(#metalDark)" stroke="#6495ED" stroke-width="0.8" stroke-opacity="0.6"/>
    <rect x="-10" y="-18" width="20" height="22" rx="4" fill="url(#metalMid)" stroke="#6495ED" stroke-width="0.8" stroke-opacity="0.4"/>
  </g>
  <g transform="translate(186,230) rotate(-4)">
    <rect x="-10" y="-80" width="20" height="26" rx="5" fill="url(#metalMid)" stroke="#6495ED" stroke-width="0.8" stroke-opacity="0.5"/>
    <rect x="-5" y="-78" width="10" height="22" rx="3" fill="url(#metalLight)"/>
    <rect x="-11" y="-56" width="22" height="6" rx="3" fill="url(#metalDark)" stroke="#6495ED" stroke-width="0.8" stroke-opacity="0.6"/>
    <rect x="-10" y="-51" width="20" height="26" rx="4" fill="url(#metalMid)" stroke="#6495ED" stroke-width="0.8" stroke-opacity="0.4"/>
    <rect x="-5" y="-49" width="10" height="22" rx="3" fill="url(#metalLight)"/>
    <rect x="-11" y="-27" width="22" height="6" rx="3" fill="url(#metalDark)" stroke="#6495ED" stroke-width="0.8" stroke-opacity="0.6"/>
    <rect x="-10" y="-22" width="20" height="26" rx="4" fill="url(#metalMid)" stroke="#6495ED" stroke-width="0.8" stroke-opacity="0.4"/>
  </g>
  <g transform="translate(214,230) rotate(4)">
    <rect x="-10" y="-74" width="20" height="24" rx="5" fill="url(#metalMid)" stroke="#6495ED" stroke-width="0.8" stroke-opacity="0.5"/>
    <rect x="-5" y="-72" width="10" height="20" rx="3" fill="url(#metalLight)"/>
    <rect x="-11" y="-52" width="22" height="6" rx="3" fill="url(#metalDark)" stroke="#6495ED" stroke-width="0.8" stroke-opacity="0.6"/>
    <rect x="-10" y="-47" width="20" height="24" rx="4" fill="url(#metalMid)" stroke="#6495ED" stroke-width="0.8" stroke-opacity="0.4"/>
    <rect x="-5" y="-45" width="10" height="20" rx="3" fill="url(#metalLight)"/>
    <rect x="-11" y="-25" width="22" height="6" rx="3" fill="url(#metalDark)" stroke="#6495ED" stroke-width="0.8" stroke-opacity="0.6"/>
    <rect x="-10" y="-20" width="20" height="24" rx="4" fill="url(#metalMid)" stroke="#6495ED" stroke-width="0.8" stroke-opacity="0.4"/>
  </g>
  <g transform="translate(236,230) rotate(14)">
    <rect x="-9" y="-62" width="18" height="20" rx="5" fill="url(#metalMid)" stroke="#6495ED" stroke-width="0.8" stroke-opacity="0.5"/>
    <rect x="-4" y="-60" width="8" height="16" rx="3" fill="url(#metalLight)"/>
    <rect x="-10" y="-44" width="20" height="5" rx="3" fill="url(#metalDark)" stroke="#6495ED" stroke-width="0.8" stroke-opacity="0.6"/>
    <rect x="-9" y="-40" width="18" height="20" rx="4" fill="url(#metalMid)" stroke="#6495ED" stroke-width="0.8" stroke-opacity="0.4"/>
    <rect x="-4" y="-38" width="8" height="16" rx="3" fill="url(#metalLight)"/>
    <rect x="-10" y="-22" width="20" height="5" rx="3" fill="url(#metalDark)" stroke="#6495ED" stroke-width="0.8" stroke-opacity="0.6"/>
    <rect x="-9" y="-18" width="18" height="22" rx="4" fill="url(#metalMid)" stroke="#6495ED" stroke-width="0.8" stroke-opacity="0.4"/>
  </g>
  <g transform="translate(148,268) rotate(-30)">
    <rect x="-50" y="-10" width="24" height="20" rx="5" fill="url(#metalMid)" stroke="#6495ED" stroke-width="0.8" stroke-opacity="0.5"/>
    <rect x="-48" y="-5" width="20" height="10" rx="3" fill="url(#metalLight)"/>
    <rect x="-28" y="-11" width="6" height="22" rx="3" fill="url(#metalDark)" stroke="#6495ED" stroke-width="0.8" stroke-opacity="0.6"/>
    <rect x="-23" y="-10" width="26" height="20" rx="4" fill="url(#metalMid)" stroke="#6495ED" stroke-width="0.8" stroke-opacity="0.4"/>
  </g>

  <!-- Knuckle glow line -->
  <line x1="154" y1="230" x2="246" y2="230" stroke="#6495ED" stroke-width="1.5" stroke-opacity="0.6" filter="url(#glow)">
    <animate attributeName="stroke-opacity" values="0.6;1;0.6" dur="1.8s" repeatCount="indefinite"/>
  </line>

  <!-- Thinking dots below hand -->
  <g transform="translate(200,348)">
    <circle cx="-20" cy="0" r="5" fill="#6495ED" opacity="0.3">
      <animate attributeName="opacity" values="0.3;1;0.3" dur="1.2s" begin="0s" repeatCount="indefinite"/>
      <animate attributeName="r" values="4;6;4" dur="1.2s" begin="0s" repeatCount="indefinite"/>
    </circle>
    <circle cx="0" cy="0" r="5" fill="#6495ED" opacity="0.3">
      <animate attributeName="opacity" values="0.3;1;0.3" dur="1.2s" begin="0.4s" repeatCount="indefinite"/>
      <animate attributeName="r" values="4;6;4" dur="1.2s" begin="0.4s" repeatCount="indefinite"/>
    </circle>
    <circle cx="20" cy="0" r="5" fill="#6495ED" opacity="0.3">
      <animate attributeName="opacity" values="0.3;1;0.3" dur="1.2s" begin="0.8s" repeatCount="indefinite"/>
      <animate attributeName="r" values="4;6;4" dur="1.2s" begin="0.8s" repeatCount="indefinite"/>
    </circle>
  </g>

  <!-- KIP text -->
  <text x="200" y="375" font-family="'Arial Black',sans-serif" font-size="28" font-weight="900" fill="white" text-anchor="middle" letter-spacing="6" opacity="0.95">KIP</text>

  <!-- Outer ring -->
  <circle cx="200" cy="200" r="196" fill="none" stroke="#6495ED" stroke-width="1" stroke-opacity="0.2">
    <animate attributeName="stroke-opacity" values="0.2;0.4;0.2" dur="2.4s" repeatCount="indefinite"/>
  </circle>
</svg>
